<svg width="24" height="24" viewBox="0 0 24 24" fill="none" xmlns="http://www.w3.org/2000/svg">
<path fill-rule="evenodd" clip-rule="evenodd" d="M7.25806 5.58788H19.0421C19.6766 5.58788 20.2752 5.8895 20.6411 6.39549C21.007 6.90147 21.0999 7.55171 20.8884 8.13747C20.7676 8.47407 20.4442 8.6839 20.0973 8.6839C20.0044 8.6839 19.9104 8.6686 19.8187 8.638C19.3823 8.48718 19.1529 8.01835 19.3062 7.59105C19.3476 7.47521 19.3017 7.3856 19.2704 7.34189C19.2402 7.29927 19.1686 7.22714 19.0421 7.22714H7.66985L8.86045 13.4782C8.86361 13.4924 8.86213 13.5066 8.86064 13.5208C8.8595 13.5317 8.85836 13.5427 8.85933 13.5536C8.86074 13.5641 8.86372 13.5743 8.86671 13.5845C8.87085 13.5986 8.875 13.6127 8.875 13.6279V14.7754C8.875 15.5295 9.50275 16.1414 10.2737 16.1414L18.9593 16.1141H18.9615C19.4237 16.1141 19.7997 16.4791 19.8008 16.9316C19.8019 17.384 19.4282 17.7523 18.9638 17.7534L10.276 17.7807C8.57623 17.7807 7.19652 16.4332 7.19652 14.7754V13.7033L5.86269 6.70039C5.68365 5.76819 4.99547 5.01741 4.06671 4.74311L3.59674 4.60432C3.15362 4.47318 2.90185 4.01637 3.03613 3.58251C3.16929 3.15084 3.63926 2.90276 4.08238 3.03609L4.55235 3.17488C5.80114 3.54317 6.77802 4.43821 7.25806 5.58788ZM18.3371 10.9769C18.4625 10.5409 18.9213 10.2829 19.3711 10.4075C19.8176 10.5288 20.0794 10.9813 19.9541 11.4173L19.2525 13.8762C19.1506 14.2303 18.8205 14.4751 18.4434 14.4751H10.5535C10.0902 14.4751 9.71424 14.1079 9.71424 13.6554C9.71424 13.203 10.0902 12.8358 10.5535 12.8358H17.8067L18.3371 10.9769ZM9.29473 18.5411C8.59984 18.5411 8.03587 19.0919 8.03587 19.7706C8.03587 20.4492 8.59984 21 9.29473 21C9.98962 21 10.5536 20.4492 10.5536 19.7706C10.5536 19.0919 9.98962 18.5411 9.29473 18.5411ZM17.2675 19.7706C17.2675 19.0919 17.8315 18.5411 18.5264 18.5411C19.2213 18.5411 19.7852 19.0919 19.7852 19.7706C19.7852 20.4492 19.2213 21 18.5264 21C17.8315 21 17.2675 20.4492 17.2675 19.7706Z" fill="white"/>
</svg>
